<svg id="Livello_1" data-name="Livello 1" xmlns="http://www.w3.org/2000/svg" viewBox="0 0 705.36 475.87"><title>DLCM_UniGe_white</title><path d="M221.22,364.87q17.06,12.86,17.06,47.15,0,33.59-16.71,47.32T178.8,473.07H144.16V352h31.67Q204.17,352,221.22,364.87Zm-51.34,6v83.28h10.49q14.88,0,23-9.19t8.13-33q0-16.45-4.11-25.55t-10.93-12.33q-6.83-3.24-16.62-3.24Z" style="fill:#fff"/><path d="M283.59,452.43h47.93l-2.8,20.64H257.87V352h25.72Z" style="fill:#fff"/><path d="M412.69,352.45a56.46,56.46,0,0,1,16.45,9.88l-12.95,15.05q-10.14-8.75-22-8.75a23.82,23.82,0,0,0-20.47,10.58q-7.51,10.59-7.52,33.16,0,21.87,7.61,32.53a24.12,24.12,0,0,0,20.73,10.68A27.7,27.7,0,0,0,406.74,453a72.27,72.27,0,0,0,11.9-7.52l11.9,15.22a51.7,51.7,0,0,1-37.27,15.22q-16.26,0-28.51-7.35t-19-21.6Q339,432.66,339,412.37q0-19.77,7-34t19.07-21.69a51.27,51.27,0,0,1,27.46-7.44A56.79,56.79,0,0,1,412.69,352.45Z" style="fill:#fff"/><path d="M562.44,473.07H537.25l-2.62-49.16q-1.23-22-1.23-37.44,0-8.22.18-11.89l-20.47,85.54H488.79L466.92,374.4q.7,10.68.7,24,0,14.17-.7,26.07l-2.62,48.63h-25L448.73,352h32.71l19.95,83.45L520.11,352h33.06Z" style="fill:#fff"/><path d="M127.12,32c0-3.69-.49-4.67-3.94-4.92l-15.49-1.72V9.59h65.65V25.32l-16.47,2c-3.69.49-3.94,1-3.94,4.67v94.42c0,44.26-24.83,64.18-67.37,64.18-47,0-66.14-21.64-66.14-64.92V32c0-3.69-.49-4.67-3.93-4.92L0,25.32V9.59H68.6V25.32l-16.48,2c-3.68.49-3.93,1-3.93,4.67v89.5c0,31.23,10.82,45.25,38.85,45.25,27.79,0,40.08-11.56,40.08-44.51Z" style="fill:#fff"/><path d="M264.3,187.6V172.11l12.29-1.47c3.44-.49,3.94-2,3.94-4.92v-57c0-14.76-1.72-27.05-17.46-27.05-12.54,0-25.57,6.88-33.69,12.79v70.81c0,3.93.25,4.42,3.94,4.92l13,1.72V187.6h-61v-16l11.8-1.47c3.45-.5,3.94-1.23,3.94-4.92V86.06c0-2.71-.74-4.43-3.2-5.17l-13.52-4.67,2.46-15.74h36.39l2,13.53,1,.24C240,64.91,254.46,58,272.17,58c26.55,0,36.63,16.72,36.63,45v62.21c0,3.93.25,4.42,3.94,4.92l13.52,1.72V187.6Z" style="fill:#fff"/><path d="M336.82,187.6V172.11l14.75-2c3.44-.5,3.93-1.23,3.93-4.92V86.06c0-2.71-.73-4.43-3.19-5.17l-13.53-4.67,2.46-15.74h42.54V165.23c0,3.93.24,4.42,3.93,4.92l14.51,1.72V187.6ZM366.57,36.39c-11.8,0-18.44-6.64-18.44-18.44C348.13,6.39,354.77,0,366.57,0,378.12,0,385,6.39,385,18,385,29.75,378.12,36.39,366.57,36.39Z" style="fill:#fff"/><path d="M571.37,122.44c-3,.25-3.93,1-3.93,3.45v52.86c-18.69,8.85-43.27,11.81-63.68,11.81-67.13,0-90.24-39.59-90.24-92.45,0-52.62,30.24-91.72,92.2-91.72,17.71,0,40.58,4.43,55.57,14.26V67.12l-27.29-2L530.31,43c-.73-3.44-1.72-4.43-3.93-4.92a91.35,91.35,0,0,0-22.62-3.2c-31.72,0-50.65,24.1-50.65,62.7,0,40.57,17.21,64.67,52.37,64.67a132.13,132.13,0,0,0,20.41-1.72c2.7-.49,3.93-1.23,3.93-4.43V123.92H502.53L506,101.79h75.49v19.67Z" style="fill:#fff"/><path d="M704.38,178c-15.25,7.38-32,12.55-50.41,12.55-47.45,0-63.68-29.51-63.68-67.87,0-44.5,27.29-65.65,61-65.65,32.45,0,54.09,17,54.09,59.51,0,3-.25,11.55-.49,16.47H629.63c1.23,17.46,8.85,29,29,29,9.59,0,19.92-2.21,36.64-8.36ZM669,109.66C668.72,89,660.61,83.6,650.53,83.6c-10.57,0-19.18,5.9-20.66,26.06Z" style="fill:#fff"/><rect y="266.3" width="705.36" height="6" style="fill:#fff"/></svg>